<?xml version="1.0" encoding="UTF-8"?>
<svg id="Camada_1" xmlns="http://www.w3.org/2000/svg" viewBox="0 0 1080 182">
  <defs>
    <style>
      .cls-1 {
        fill: #7bf179;
      }

      .cls-2 {
        fill: #023840;
      }
    </style>
  </defs>
  <g>
    <path class="cls-2" d="M301.23,155.63c-12.4,0-23.1-2.68-32.07-8.06-8.98-5.37-15.86-12.87-20.64-22.5-4.78-9.63-7.18-20.76-7.18-33.4s2.39-23.95,7.18-33.58c4.78-9.63,11.66-17.16,20.64-22.59,8.98-5.43,19.67-8.15,32.07-8.15,14.77,0,26.84,3.63,36.24,10.9,9.39,7.26,15.27,17.51,17.63,30.74h-23.39c-1.53-7.09-4.9-12.61-10.1-16.57-5.2-3.96-12.05-5.94-20.55-5.94-7.92,0-14.71,1.8-20.38,5.41-5.67,3.6-10.04,8.8-13.11,15.59-3.07,6.79-4.61,14.86-4.61,24.19s1.53,17.34,4.61,24.01c3.07,6.67,7.44,11.84,13.11,15.5,5.67,3.66,12.46,5.49,20.38,5.49,8.51,0,15.33-1.92,20.47-5.76,5.14-3.84,8.53-9.24,10.19-16.21h23.57c-2.48,12.88-8.42,22.92-17.81,30.12-9.39,7.21-21.47,10.81-36.24,10.81Z"/>
    <path class="cls-2" d="M361.83,153.51V25.93h21.26v53.34c2.95-4.84,7-8.68,12.14-11.52,5.14-2.84,10.96-4.25,17.45-4.25,10.63,0,18.96,3.4,24.99,10.19,6.02,6.79,9.04,16.74,9.04,29.86v49.97h-21.09v-47.84c0-7.91-1.57-13.91-4.7-17.98-3.13-4.08-8.06-6.11-14.8-6.11s-12.11,2.3-16.48,6.91c-4.37,4.61-6.56,11.16-6.56,19.67v45.36h-21.26Z"/>
    <path class="cls-2" d="M497.74,155.63c-8.86,0-16.69-1.92-23.48-5.76-6.79-3.84-12.11-9.18-15.95-16.04-3.84-6.85-5.76-14.77-5.76-23.74s1.89-17.16,5.67-24.19c3.78-7.03,9.1-12.52,15.95-16.48,6.85-3.96,14.77-5.94,23.74-5.94s16.21,1.89,22.77,5.67c6.56,3.78,11.63,8.89,15.24,15.33,3.6,6.44,5.4,13.67,5.4,21.71v3.9c0,1.42-.12,2.95-.35,4.61h-73v-13.82h51.92c-.35-6.14-2.6-11.01-6.73-14.62-4.14-3.6-9.22-5.4-15.24-5.4-4.37,0-8.42.97-12.14,2.92s-6.71,4.85-8.95,8.68c-2.25,3.84-3.37,8.71-3.37,14.62v5.14c0,5.44,1.09,10.1,3.28,14,2.18,3.9,5.11,6.85,8.77,8.86,3.66,2.01,7.74,3.01,12.23,3.01,4.84,0,8.92-1.09,12.23-3.28,3.31-2.19,5.73-5.11,7.26-8.77h21.62c-1.54,5.67-4.23,10.72-8.06,15.15-3.84,4.43-8.54,7.95-14.09,10.54-5.55,2.6-11.87,3.9-18.96,3.9Z"/>
    <path class="cls-2" d="M589.88,155.63c-8.86,0-16.72-1.95-23.57-5.85-6.85-3.9-12.23-9.3-16.13-16.21-3.9-6.91-5.85-14.91-5.85-24.01s1.95-17.1,5.85-24.01c3.9-6.91,9.27-12.32,16.13-16.21,6.85-3.9,14.71-5.85,23.57-5.85,10.99,0,20.26,2.9,27.82,8.68,7.56,5.79,12.4,13.7,14.53,23.74h-22.15c-1.18-4.49-3.61-7.97-7.26-10.45-3.66-2.48-8.04-3.72-13.11-3.72-4.25,0-8.18,1.09-11.78,3.28-3.61,2.19-6.47,5.32-8.59,9.39-2.13,4.08-3.19,9.13-3.19,15.15s1.06,10.96,3.19,15.15c2.13,4.19,4.99,7.38,8.59,9.57,3.6,2.19,7.53,3.28,11.78,3.28,5.08,0,9.45-1.24,13.11-3.72,3.66-2.48,6.08-6.02,7.26-10.63h22.15c-2.01,9.69-6.82,17.51-14.44,23.48-7.62,5.97-16.92,8.95-27.91,8.95Z"/>
    <path class="cls-2" d="M638.25,153.51V25.93h21.26v127.58h-21.26ZM658.1,127.28l-9.21-13.82,44.3-47.84h25.16l-60.25,61.66ZM697.97,153.51l-34.38-44.65,12.94-12.94,47.67,57.59h-26.23Z"/>
    <path class="cls-2" d="M727.56,153.51V29.47h25.34l45.36,106.14-9.39,1.06,45.19-107.2h25.16v124.04h-21.26V47.19l7.27,4.43-43.41,101.89h-16.66l-43.59-101.89,7.26-4.43v106.32h-21.26Z"/>
    <path class="cls-2" d="M912.37,153.51l-45.54-124.04h22.68l35.79,102.06,35.97-102.06h22.5l-45.54,124.04h-25.87Z"/>
    <path class="cls-2" d="M991.4,153.51V29.47h45.01c9.92,0,18.1,1.66,24.54,4.96,6.44,3.31,11.22,7.8,14.35,13.47,3.13,5.67,4.7,12.11,4.7,19.31,0,6.73-1.54,12.97-4.61,18.69-3.07,5.73-7.83,10.31-14.27,13.73-6.44,3.43-14.68,5.14-24.72,5.14h-23.74v48.73h-21.26ZM1012.66,87.41h22.5c8.27,0,14.2-1.8,17.81-5.41s5.4-8.53,5.4-14.8-1.8-11.37-5.4-14.97c-3.61-3.6-9.54-5.41-17.81-5.41h-22.5v40.58Z"/>
  </g>
  <g>
    <rect class="cls-2" x=".63" y="-.18" width="181.93" height="181.93" rx="42.53" ry="42.53"/>
    <path class="cls-1" d="M128.27,80.24v-35.79c0-2.57,2.09-4.66,4.66-4.66h9.5c2.57,0,4.66,2.09,4.66,4.66v93.03c0,2.57-2.09,4.66-4.66,4.66h-9.5c-2.57,0-4.66-2.09-4.66-4.66v-19.36c0-4.15-5.02-6.23-7.95-3.29l-24.79,24.79c-1.82,1.82-4.77,1.82-6.59,0l-25.64-25.64c-2.94-2.94-7.95-.86-7.95,3.29v20.21c0,2.57-2.09,4.66-4.66,4.66h-9.5c-2.57,0-4.66-2.09-4.66-4.66V44.45c0-2.57,2.09-4.66,4.66-4.66h9.5c2.57,0,4.66,2.09,4.66,4.66v33.03c0,1.24.49,2.42,1.36,3.29h0s32.23,32.23,32.23,32.23c1.82,1.82,4.77,1.82,6.59,0"/>
  </g>
</svg>